<?xml version="1.0" encoding="UTF-8"?>
<svg width="1024px" height="1024px" viewBox="0 0 1024 1024" version="1.1" xmlns="http://www.w3.org/2000/svg" xmlns:xlink="http://www.w3.org/1999/xlink">
    <title>Artboard</title>
    <defs>
        <filter id="filter-1">
            <feColorMatrix in="SourceGraphic" type="matrix" values="0 0 0 0 0.000000 0 0 0 0 0.658824 0 0 0 0 0.352941 0 0 0 1.000000 0"></feColorMatrix>
        </filter>
    </defs>
    <g id="Artboard" stroke="none" stroke-width="1" fill="none" fill-rule="evenodd">
        <rect fill="#000000" x="0" y="0" width="1024" height="1024"></rect>
        <g filter="url(#filter-1)" id="Group-2">
            <g transform="translate(23.000000, 355.000000)">
                <path d="M881.933369,189.770903 C893.03963,195.852517 904.692445,200.918092 915.651093,207.280731 C925.817174,212.524327 933.198833,222.20473 936.854058,232.921228 C939.972683,241.55464 940.381159,251.098553 937.772216,259.920563 C937.4381,260.906163 937.117621,261.898113 936.800684,262.892125 L936.168545,264.881628 C935.112882,268.197816 934.021817,271.505158 932.521505,274.644849 C929.740849,279.344125 924.591311,281.951159 919.934114,284.464002 C912.675674,288.768087 904.245172,290.491669 896.960635,294.724261 C887.049663,302.71374 876.016412,309.7618 863.615113,313.087909 C854.672719,315.530314 845.4908,312.405777 837.402569,308.65187 C836.379574,308.123992 835.30404,307.649977 834.214895,307.184658 L833.48721,306.875239 C833.122786,306.720678 832.757812,306.565968 832.393728,306.409436 L831.667175,306.093448 C828.286124,304.602877 825.066399,302.856474 823.180236,299.494193 C816.472374,291.791838 812.852955,281.508579 813.160609,271.307593 C814.453061,255.153495 820.009167,239.769893 823.418539,224.012426 L823.132841,225.313733 C828.399627,222.170071 832.507177,218.194721 835.455492,213.387681 L835.455492,213.387681 L836.366843,213.387681 L836.366843,229.476946 L881.934406,229.476946 Z M817.110606,228.336935 C814.432778,234.936994 811.752798,241.536006 808.794125,248.016717 C803.005356,261.737181 794.371847,274.504643 782.479996,283.644393 C772.095226,291.821566 758.558673,297.582313 745.164975,294.965604 C742.803041,294.845669 740.473311,293.62414 740.037913,291.082054 C739.468594,286.62171 742.362357,282.038553 746.349388,280.07028 C747.556802,279.533113 748.77631,279.014292 749.999138,278.49875 L751.467564,277.880709 C756.608707,275.716326 761.746542,273.503479 766.231212,270.125919 C778.883644,260.596072 787.6098,247.142138 794.613662,233.09113 C802.406674,232.874392 809.708291,231.37169 816.518253,228.58402 Z M709.18552,133.950619 C719.290298,126.954103 732.404011,125.993796 744.127789,128.64595 C755.494766,131.634654 766.175733,136.66916 776.915303,141.376926 C774.439028,142.132101 772.029748,142.963411 769.686309,143.869914 C760.269012,147.512766 752.573157,152.673474 746.598743,159.352036 C740.624329,166.030599 737.637122,174.834159 737.637122,185.762717 C737.637122,194.667467 739.358564,202.155553 742.801446,208.226974 C746.244329,214.298394 750.649193,219.155531 756.01604,222.798383 C761.382886,226.441236 767.306669,229.072185 773.787389,230.69123 C778.654235,231.90709 783.406866,232.66641 788.045282,232.969192 L787.230755,233.999287 L787.230755,233.999287 L786.297128,235.1631 C780.67446,242.916341 772.115733,247.737745 763.527311,251.537818 C755.01793,255.251116 746.08461,258.973052 736.642361,258.935389 C728.105161,258.421116 719.157635,256.000957 712.80737,249.984957 C707.073644,243.816532 703.454255,235.851408 701.481039,227.721154 C699.603135,216.862308 700.271138,205.595415 697.082036,194.947245 C696.064335,189.979074 692.967844,185.844639 691.318817,181.11771 C688.959511,169.371519 692.735918,157.400851 697.744109,146.845491 C699.741493,141.252138 704.160843,136.930656 709.18552,133.950619 Z M913.305797,66.1300754 C925.38158,64.3618485 938.055816,69.1989685 946.080286,78.3428331 C955.634273,89.8386725 959.260572,104.764956 962.512861,119.017052 C964.040586,129.368236 969.408859,138.488131 973.524652,147.93849 C977.749152,157.263889 979.884971,168.33785 975.844454,178.105207 C975.245322,179.237245 974.695546,180.409277 974.156469,181.592589 L973.696121,182.60895 C971.858,186.680087 970.01582,190.787392 966.611614,193.773606 C958.336337,199.498163 947.95502,201.283078 938.054142,201.063361 C923.748598,200.59741 910.188908,196.125129 896.743128,191.50052 L894.823009,190.839242 C894.503096,190.728995 894.18323,190.618765 893.863403,190.508606 L891.944841,189.8489 C889.067495,188.861845 886.191925,187.888863 883.311913,186.967877 C882.89709,186.969608 882.430336,186.863417 881.934428,186.69745 L881.934406,153.280616 L881.931633,152.168889 C881.865062,138.877401 880.600221,127.35811 878.137109,117.611019 C876.534578,111.26944 874.343668,105.617202 871.564378,100.654306 C875.750669,93.6963878 879.834984,86.6533046 885.041918,80.4026519 C891.867141,71.8256589 902.563812,67.1596634 913.305797,66.1300754 Z M836.089439,163.521507 L836.089439,168.691666 L836.086089,169.272623 C835.978903,178.52842 833.299243,185.887254 828.047109,191.349127 C822.685555,196.924788 814.94671,199.712619 804.830571,199.712619 C802.402698,199.712619 799.873663,199.45918 797.243467,198.952301 C794.613271,198.445423 792.28656,197.58373 790.263332,196.367222 C788.240104,195.150714 786.570941,193.528703 785.255843,191.50119 C783.940745,189.473677 783.283196,187.040661 783.283196,184.202142 C783.283196,179.741613 784.699456,176.142777 787.531974,173.405634 C790.364493,170.668491 793.955722,168.59029 798.305662,167.171031 C802.655601,165.751772 807.612509,164.788703 813.176385,164.281825 C818.740261,163.774946 824.253557,163.521507 829.716272,163.521507 L829.716272,163.521507 L836.089439,163.521507 Z M815.468677,24.1146148 C825.376518,19.9718188 837.101627,20.0277238 846.655028,25.1256108 C857.793202,31.2259536 864.941965,42.6367638 869.142025,54.3102107 C871.450093,61.6332176 873.847164,69.2990042 872.995629,77.0690766 C871.56988,83.0070574 869.643669,88.7965559 867.58267,94.5437648 C867.113726,93.9207336 866.631681,93.3124428 866.137651,92.7181937 C860.669543,86.1408212 853.530625,81.2836846 844.720896,78.1467839 C835.911167,75.0098832 825.126844,73.4414328 812.367926,73.4414328 C800.014054,73.4414328 787.913334,75.5664301 776.065767,79.8164246 C764.218201,84.0664191 753.838923,90.4414109 744.927932,98.9414 L744.927932,98.9414 L770.141984,125.959222 L770.705564,125.452137 C775.251141,121.418771 780.683281,117.944947 787.001983,115.030665 C793.583964,111.994955 800.419099,110.477099 807.507386,110.477099 C815.203241,110.477099 821.683961,112.24793 826.949547,115.789593 C832.215132,119.331255 834.847924,124.846129 834.847924,132.334214 L834.847924,132.334214 L834.847924,134.762782 L832.91485,134.769085 C822.588305,134.836312 811.992664,135.441353 801.127927,136.584209 C793.599472,137.376123 786.523235,138.684496 779.899216,140.509328 C773.526553,136.728369 767.250399,132.796266 761.703931,127.83697 C752.766372,119.51247 745.192953,109.478018 740.538158,98.1332081 C735.543465,86.5253061 737.880837,73.2857893 742.432894,61.939441 C744.349361,56.1981282 747.968914,51.050436 752.969107,47.5895303 C759.548507,42.5945385 767.621037,41.1270837 775.610013,39.8015803 L776.778352,39.6082246 C778.72398,39.286344 780.660061,38.9630833 782.56372,38.5893199 C794.658506,36.6457184 804.282424,28.4507815 815.468677,24.1146148 Z" id="Combined-Shape" fill="#000000" fill-rule="nonzero"></path>
                <path d="M50.4182685,229.669108 L50.4182685,0 L0,0 L0,229.669108 L50.4182685,229.669108 Z M155.229881,234.542986 C166.771535,234.542986 177.604492,232.618646 187.728751,228.769964 C197.853009,224.921283 206.762357,219.502744 214.456794,212.514349 C222.15123,205.525954 228.225785,197.018342 232.680459,186.991514 C237.135133,176.964686 239.36247,165.773125 239.36247,153.416832 C239.36247,141.060539 237.135133,129.919619 232.680459,119.994072 C228.225785,110.068525 222.15123,101.662194 214.456794,94.7750797 C206.762357,87.8879655 197.853009,82.6213487 187.728751,78.9752294 C177.604492,75.3291101 166.771535,73.5060505 155.229881,73.5060505 C143.890711,73.5060505 133.108376,75.3291101 122.882874,78.9752294 C112.657373,82.6213487 103.748026,87.8879655 96.1548316,94.7750797 C88.5616376,101.662194 82.5377037,110.068525 78.0830299,119.994072 C73.6283561,129.919619 71.4010192,141.060539 71.4010192,153.416832 C71.4010192,165.773125 73.6283561,176.964686 78.0830299,186.991514 C82.5377037,197.018342 88.5616376,205.525954 96.1548316,212.514349 C103.748026,219.502744 112.657373,224.921283 122.882874,228.769964 C133.108376,232.618646 143.890711,234.542986 155.229881,234.542986 Z M155.431467,192.567948 C149.565937,192.567948 144.408317,191.453867 139.958605,189.225704 C135.508893,186.997542 131.76709,184.009778 128.733196,180.262414 C125.699302,176.51505 123.423881,172.311925 121.906934,167.65304 C120.389986,162.994155 119.631513,158.233989 119.631513,153.372544 C119.631513,148.511098 120.389986,143.750933 121.906934,139.092048 C123.423881,134.433163 125.648737,130.331318 128.581501,126.786514 C131.514266,123.24171 135.205504,120.355227 139.655216,118.127064 C144.104928,115.898902 149.262548,114.78482 155.128077,114.78482 C160.993606,114.78482 166.151227,115.898902 170.600939,118.127064 C175.05065,120.355227 178.792454,123.24171 181.826348,126.786514 C184.860242,130.331318 187.186228,134.433163 188.804305,139.092048 C190.422382,143.750933 191.231421,148.511098 191.231421,153.372544 C191.231421,158.233989 190.472947,162.994155 188.956,167.65304 C187.439053,172.311925 185.163632,176.51505 182.129737,180.262414 C179.095843,184.009778 175.35404,186.997542 170.904328,189.225704 C166.454616,191.453867 161.296996,192.567948 155.431467,192.567948 Z M319.156366,233.349383 C324.424037,233.349383 329.691707,232.893636 334.959378,231.98214 C340.227048,231.070645 344.583006,230.007233 348.027252,228.791906 L348.027252,228.791906 L347.419444,192.332083 C345.59602,193.142301 343.316739,193.749965 340.581603,194.155074 C337.846466,194.560183 335.263282,194.762738 332.832049,194.762738 C325.740954,194.762738 320.827839,192.990385 318.092702,189.44568 C315.357566,185.900975 313.989997,180.583918 313.989997,173.494508 L313.989997,173.494508 L313.989997,115.766455 L349.546772,115.766455 L349.546772,78.3951364 L313.989997,78.3951364 L313.989997,38.5931632 L265.061444,38.5931632 L265.061444,78.3951364 L241.053023,78.3951364 L241.053023,115.766455 L265.365348,115.766455 L265.365348,179.571145 C265.365348,187.673328 266.27706,195.015931 268.100484,201.598954 C269.923909,208.181978 272.912299,213.853506 277.065654,218.613538 C281.21901,223.373571 286.739933,227.019553 293.628425,229.551485 C300.516917,232.083417 309.026231,233.349383 319.156366,233.349383 Z M413.727911,233.349383 C418.995582,233.349383 424.263252,232.893636 429.530923,231.98214 C434.798593,231.070645 439.154551,230.007233 442.598797,228.791906 L442.598797,228.791906 L441.990989,192.332083 C440.167565,193.142301 437.888284,193.749965 435.153148,194.155074 C432.418011,194.560183 429.834827,194.762738 427.403594,194.762738 C420.312499,194.762738 415.399384,192.990385 412.664247,189.44568 C409.929111,185.900975 408.561542,180.583918 408.561542,173.494508 L408.561542,173.494508 L408.561542,115.766455 L444.118317,115.766455 L444.118317,78.3951364 L408.561542,78.3951364 L408.561542,38.5931632 L359.632989,38.5931632 L359.632989,78.3951364 L335.624568,78.3951364 L335.624568,115.766455 L359.936893,115.766455 L359.936893,179.571145 C359.936893,187.673328 360.848605,195.015931 362.672029,201.598954 C364.495454,208.181978 367.483844,213.853506 371.637199,218.613538 C375.790555,223.373571 381.311478,227.019553 388.19997,229.551485 C395.088462,232.083417 403.597776,233.349383 413.727911,233.349383 Z M532.104886,234.542986 C547.492249,234.542986 561.006808,231.757756 572.648564,226.187296 C584.290319,220.616836 593.654339,212.666271 600.740625,202.335599 L600.740625,202.335599 L566.119057,180.458883 C562.677147,185.117814 558.22291,188.915855 552.756347,191.853006 C547.289784,194.790158 540.608429,196.258734 532.712282,196.258734 C528.258045,196.258734 523.955657,195.549766 519.805118,194.131831 C515.65458,192.713896 511.908971,190.738914 508.568294,188.206887 C505.227616,185.67486 502.494335,182.687067 500.368449,179.24351 C498.242563,175.799953 496.977155,171.951272 496.572224,167.697466 L496.572224,167.697466 L606.207188,167.697466 C606.409654,165.874406 606.510886,163.950065 606.510886,161.924444 L606.510886,161.924444 L606.510886,155.847578 C606.510886,142.883598 604.638082,131.337554 600.892474,121.209445 C597.146866,111.081336 591.933384,102.472443 585.252029,95.3827663 C578.570674,88.2930899 570.573294,82.8745514 561.25989,79.127151 C551.946486,75.3797507 541.721988,73.5060505 530.586396,73.5060505 C519.045874,73.5060505 508.315212,75.4303912 498.394412,79.2790727 C488.473612,83.1277542 479.868837,88.5462926 472.580086,95.5346879 C465.291334,102.523083 459.521073,111.030695 455.269302,121.057523 C451.01753,131.084351 448.891645,142.275912 448.891645,154.632205 C448.891645,167.393623 451.068147,178.737105 455.421151,188.662652 C459.774155,198.588199 465.746881,206.943889 473.33933,213.729722 C480.931779,220.515555 489.789637,225.680891 499.912902,229.225729 C510.036167,232.770567 520.766829,234.542986 532.104886,234.542986 Z M560.567612,136.767009 L496.525472,136.767009 C496.727817,132.920955 497.739541,129.226718 499.560645,125.6843 C501.381748,122.141882 503.809886,119.054918 506.845059,116.423407 C509.880231,113.791896 513.421266,111.717051 517.468162,110.198872 C521.515059,108.680693 525.966645,107.921603 530.822921,107.921603 C540.737818,107.921603 548.173991,110.755538 553.131439,116.423407 C558.088888,122.091276 560.567612,128.872477 560.567612,136.767009 L560.567612,136.767009 Z M676.315372,229.669108 L676.315372,151.88598 C676.315372,148.847576 676.922887,145.302772 678.137915,141.251568 C679.352944,137.200363 681.327366,133.452999 684.06118,130.009475 C686.794995,126.565951 690.440081,123.628828 694.996439,121.198105 C699.552797,118.767382 705.172305,117.552021 711.854963,117.552021 C713.880011,117.552021 715.955685,117.653301 718.081985,117.855861 C720.208285,118.058422 722.385212,118.463542 724.612765,119.071223 L724.612765,119.071223 L726.739065,75.3182133 C725.524036,74.9130929 723.954624,74.6092525 722.030828,74.4066923 C720.107033,74.2041321 718.132611,74.1028519 716.107563,74.1028519 C706.792343,74.1028519 698.590899,76.5335747 691.503231,81.3950202 C684.415564,86.2564657 678.947934,92.5358328 675.100343,100.233121 L675.100343,100.233121 L674.492829,100.233121 L674.492829,78.3566167 L626.499194,78.3566167 L626.499194,229.669108 L676.315372,229.669108 Z" id="lottera" fill="#000000" fill-rule="nonzero"></path>
            </g>
        </g>
    </g>
</svg>